{
  "cells": [
    {
      "cell_type": "markdown",
      "metadata": {
        "id": "C9n_Ku_kqY1N"
      },
      "source": [
        "#Audio Extraction from Video"
      ]
    },
    {
      "cell_type": "code",
      "execution_count": 1,
      "metadata": {
        "colab": {
          "base_uri": "https://localhost:8080/"
        },
        "id": "YGEoNHHJ-Q8K",
        "outputId": "4351aa37-b5ce-49e3-cc93-2f41ea401c2d"
      },
      "outputs": [
        {
          "name": "stdout",
          "output_type": "stream",
          "text": [
            "ffmpeg version 4.4.2-0ubuntu0.22.04.1 Copyright (c) 2000-2021 the FFmpeg developers\n",
            "  built with gcc 11 (Ubuntu 11.2.0-19ubuntu1)\n",
            "  configuration: --prefix=/usr --extra-version=0ubuntu0.22.04.1 --toolchain=hardened --libdir=/usr/lib/x86_64-linux-gnu --incdir=/usr/include/x86_64-linux-gnu --arch=amd64 --enable-gpl --disable-stripping --enable-gnutls --enable-ladspa --enable-libaom --enable-libass --enable-libbluray --enable-libbs2b --enable-libcaca --enable-libcdio --enable-libcodec2 --enable-libdav1d --enable-libflite --enable-libfontconfig --enable-libfreetype --enable-libfribidi --enable-libgme --enable-libgsm --enable-libjack --enable-libmp3lame --enable-libmysofa --enable-libopenjpeg --enable-libopenmpt --enable-libopus --enable-libpulse --enable-librabbitmq --enable-librubberband --enable-libshine --enable-libsnappy --enable-libsoxr --enable-libspeex --enable-libsrt --enable-libssh --enable-libtheora --enable-libtwolame --enable-libvidstab --enable-libvorbis --enable-libvpx --enable-libwebp --enable-libx265 --enable-libxml2 --enable-libxvid --enable-libzimg --enable-libzmq --enable-libzvbi --enable-lv2 --enable-omx --enable-openal --enable-opencl --enable-opengl --enable-sdl2 --enable-pocketsphinx --enable-librsvg --enable-libmfx --enable-libdc1394 --enable-libdrm --enable-libiec61883 --enable-chromaprint --enable-frei0r --enable-libx264 --enable-shared\n",
            "  libavutil      56. 70.100 / 56. 70.100\n",
            "  libavcodec     58.134.100 / 58.134.100\n",
            "  libavformat    58. 76.100 / 58. 76.100\n",
            "  libavdevice    58. 13.100 / 58. 13.100\n",
            "  libavfilter     7.110.100 /  7.110.100\n",
            "  libswscale      5.  9.100 /  5.  9.100\n",
            "  libswresample   3.  9.100 /  3.  9.100\n",
            "  libpostproc    55.  9.100 / 55.  9.100\n",
            "Input #0, mov,mp4,m4a,3gp,3g2,mj2, from 'input_video.mp4':\n",
            "  Metadata:\n",
            "    major_brand     : mp42\n",
            "    minor_version   : 0\n",
            "    compatible_brands: isommp42\n",
            "    encoder         : Google\n",
            "  Duration: 00:03:00.61, start: 0.000000, bitrate: 384 kb/s\n",
            "  Stream #0:0(und): Video: h264 (Main) (avc1 / 0x31637661), yuv420p(tv, bt709), 640x360 [SAR 1:1 DAR 16:9], 286 kb/s, 30 fps, 30 tbr, 15360 tbn, 60 tbc (default)\n",
            "    Metadata:\n",
            "      handler_name    : ISO Media file produced by Google Inc.\n",
            "      vendor_id       : [0][0][0][0]\n",
            "  Stream #0:1(eng): Audio: aac (LC) (mp4a / 0x6134706D), 44100 Hz, stereo, fltp, 96 kb/s (default)\n",
            "    Metadata:\n",
            "      handler_name    : ISO Media file produced by Google Inc.\n",
            "      vendor_id       : [0][0][0][0]\n",
            "Stream mapping:\n",
            "  Stream #0:1 -> #0:0 (aac (native) -> mp3 (libmp3lame))\n",
            "Press [q] to stop, [?] for help\n",
            "Output #0, mp3, to 'output_audio.mp3':\n",
            "  Metadata:\n",
            "    major_brand     : mp42\n",
            "    minor_version   : 0\n",
            "    compatible_brands: isommp42\n",
            "    TSSE            : Lavf58.76.100\n",
            "  Stream #0:0(eng): Audio: mp3, 44100 Hz, stereo, fltp (default)\n",
            "    Metadata:\n",
            "      handler_name    : ISO Media file produced by Google Inc.\n",
            "      vendor_id       : [0][0][0][0]\n",
            "      encoder         : Lavc58.134.100 libmp3lame\n",
            "size=    5065kB time=00:03:00.58 bitrate= 229.8kbits/s speed=39.4x    \n",
            "video:0kB audio:5064kB subtitle:0kB other streams:0kB global headers:0kB muxing overhead: 0.006672%\n"
          ]
        }
      ],
      "source": [
        "!ffmpeg -i input_video.mp4 -q:a 0 -map a output_audio.mp3"
      ]
    },
    {
      "cell_type": "code",
      "execution_count": 2,
      "metadata": {
        "colab": {
          "base_uri": "https://localhost:8080/"
        },
        "id": "iCO9ObvwAXfp",
        "outputId": "f6e365b5-2161-4cfd-bece-4098faa3c218"
      },
      "outputs": [
        {
          "name": "stdout",
          "output_type": "stream",
          "text": [
            "Collecting whisper\n",
            "  Downloading whisper-1.1.10.tar.gz (42 kB)\n",
            "\u001b[?25l     \u001b[90m━━━━━━━━━━━━━━━━━━━━━━━━━━━━━━━━━━━━━━━━\u001b[0m \u001b[32m0.0/42.8 kB\u001b[0m \u001b[31m?\u001b[0m eta \u001b[36m-:--:--\u001b[0m\r\u001b[2K     \u001b[90m━━━━━━━━━━━━━━━━━━━━━━━━━━━━━━━━━━━━━━━━\u001b[0m \u001b[32m42.8/42.8 kB\u001b[0m \u001b[31m1.6 MB/s\u001b[0m eta \u001b[36m0:00:00\u001b[0m\n",
            "\u001b[?25h  Preparing metadata (setup.py) ... \u001b[?25l\u001b[?25hdone\n",
            "Requirement already satisfied: six in /usr/local/lib/python3.11/dist-packages (from whisper) (1.17.0)\n",
            "Building wheels for collected packages: whisper\n",
            "  Building wheel for whisper (setup.py) ... \u001b[?25l\u001b[?25hdone\n",
            "  Created wheel for whisper: filename=whisper-1.1.10-py3-none-any.whl size=41120 sha256=0762b307996288adebecfe833d37d4bc39835c4998dad5006b19b22b72ca3581\n",
            "  Stored in directory: /root/.cache/pip/wheels/21/65/ee/4e6672aabfa486d3341a39a04f8f87c77e5156149299b5a7d0\n",
            "Successfully built whisper\n",
            "Installing collected packages: whisper\n",
            "Successfully installed whisper-1.1.10\n"
          ]
        }
      ],
      "source": [
        "pip install whisper"
      ]
    },
    {
      "cell_type": "code",
      "execution_count": 3,
      "metadata": {
        "colab": {
          "base_uri": "https://localhost:8080/"
        },
        "id": "SMlxFpSkBQuu",
        "outputId": "0f69bae7-9030-4396-e61f-63b70a838b00"
      },
      "outputs": [
        {
          "name": "stdout",
          "output_type": "stream",
          "text": [
            "Collecting git+https://github.com/openai/whisper.git\n",
            "  Cloning https://github.com/openai/whisper.git to /tmp/pip-req-build-rft33bcf\n",
            "  Running command git clone --filter=blob:none --quiet https://github.com/openai/whisper.git /tmp/pip-req-build-rft33bcf\n",
            "  Resolved https://github.com/openai/whisper.git to commit 517a43ecd132a2089d85f4ebc044728a71d49f6e\n",
            "  Installing build dependencies ... \u001b[?25l\u001b[?25hdone\n",
            "  Getting requirements to build wheel ... \u001b[?25l\u001b[?25hdone\n",
            "  Preparing metadata (pyproject.toml) ... \u001b[?25l\u001b[?25hdone\n",
            "Requirement already satisfied: more-itertools in /usr/local/lib/python3.11/dist-packages (from openai-whisper==20240930) (10.5.0)\n",
            "Requirement already satisfied: numba in /usr/local/lib/python3.11/dist-packages (from openai-whisper==20240930) (0.60.0)\n",
            "Requirement already satisfied: numpy in /usr/local/lib/python3.11/dist-packages (from openai-whisper==20240930) (1.26.4)\n",
            "Collecting tiktoken (from openai-whisper==20240930)\n",
            "  Downloading tiktoken-0.8.0-cp311-cp311-manylinux_2_17_x86_64.manylinux2014_x86_64.whl.metadata (6.6 kB)\n",
            "Requirement already satisfied: torch in /usr/local/lib/python3.11/dist-packages (from openai-whisper==20240930) (2.5.1+cu121)\n",
            "Requirement already satisfied: tqdm in /usr/local/lib/python3.11/dist-packages (from openai-whisper==20240930) (4.67.1)\n",
            "Requirement already satisfied: triton>=2 in /usr/local/lib/python3.11/dist-packages (from openai-whisper==20240930) (3.1.0)\n",
            "Requirement already satisfied: filelock in /usr/local/lib/python3.11/dist-packages (from triton>=2->openai-whisper==20240930) (3.16.1)\n",
            "Requirement already satisfied: llvmlite<0.44,>=0.43.0dev0 in /usr/local/lib/python3.11/dist-packages (from numba->openai-whisper==20240930) (0.43.0)\n",
            "Requirement already satisfied: regex>=2022.1.18 in /usr/local/lib/python3.11/dist-packages (from tiktoken->openai-whisper==20240930) (2024.11.6)\n",
            "Requirement already satisfied: requests>=2.26.0 in /usr/local/lib/python3.11/dist-packages (from tiktoken->openai-whisper==20240930) (2.32.3)\n",
            "Requirement already satisfied: typing-extensions>=4.8.0 in /usr/local/lib/python3.11/dist-packages (from torch->openai-whisper==20240930) (4.12.2)\n",
            "Requirement already satisfied: networkx in /usr/local/lib/python3.11/dist-packages (from torch->openai-whisper==20240930) (3.4.2)\n",
            "Requirement already satisfied: jinja2 in /usr/local/lib/python3.11/dist-packages (from torch->openai-whisper==20240930) (3.1.5)\n",
            "Requirement already satisfied: fsspec in /usr/local/lib/python3.11/dist-packages (from torch->openai-whisper==20240930) (2024.10.0)\n",
            "Requirement already satisfied: nvidia-cuda-nvrtc-cu12==12.1.105 in /usr/local/lib/python3.11/dist-packages (from torch->openai-whisper==20240930) (12.1.105)\n",
            "Requirement already satisfied: nvidia-cuda-runtime-cu12==12.1.105 in /usr/local/lib/python3.11/dist-packages (from torch->openai-whisper==20240930) (12.1.105)\n",
            "Requirement already satisfied: nvidia-cuda-cupti-cu12==12.1.105 in /usr/local/lib/python3.11/dist-packages (from torch->openai-whisper==20240930) (12.1.105)\n",
            "Requirement already satisfied: nvidia-cudnn-cu12==9.1.0.70 in /usr/local/lib/python3.11/dist-packages (from torch->openai-whisper==20240930) (9.1.0.70)\n",
            "Requirement already satisfied: nvidia-cublas-cu12==12.1.3.1 in /usr/local/lib/python3.11/dist-packages (from torch->openai-whisper==20240930) (12.1.3.1)\n",
            "Requirement already satisfied: nvidia-cufft-cu12==11.0.2.54 in /usr/local/lib/python3.11/dist-packages (from torch->openai-whisper==20240930) (11.0.2.54)\n",
            "Requirement already satisfied: nvidia-curand-cu12==10.3.2.106 in /usr/local/lib/python3.11/dist-packages (from torch->openai-whisper==20240930) (10.3.2.106)\n",
            "Requirement already satisfied: nvidia-cusolver-cu12==11.4.5.107 in /usr/local/lib/python3.11/dist-packages (from torch->openai-whisper==20240930) (11.4.5.107)\n",
            "Requirement already satisfied: nvidia-cusparse-cu12==12.1.0.106 in /usr/local/lib/python3.11/dist-packages (from torch->openai-whisper==20240930) (12.1.0.106)\n",
            "Requirement already satisfied: nvidia-nccl-cu12==2.21.5 in /usr/local/lib/python3.11/dist-packages (from torch->openai-whisper==20240930) (2.21.5)\n",
            "Requirement already satisfied: nvidia-nvtx-cu12==12.1.105 in /usr/local/lib/python3.11/dist-packages (from torch->openai-whisper==20240930) (12.1.105)\n",
            "Requirement already satisfied: sympy==1.13.1 in /usr/local/lib/python3.11/dist-packages (from torch->openai-whisper==20240930) (1.13.1)\n",
            "Requirement already satisfied: nvidia-nvjitlink-cu12 in /usr/local/lib/python3.11/dist-packages (from nvidia-cusolver-cu12==11.4.5.107->torch->openai-whisper==20240930) (12.6.85)\n",
            "Requirement already satisfied: mpmath<1.4,>=1.1.0 in /usr/local/lib/python3.11/dist-packages (from sympy==1.13.1->torch->openai-whisper==20240930) (1.3.0)\n",
            "Requirement already satisfied: charset-normalizer<4,>=2 in /usr/local/lib/python3.11/dist-packages (from requests>=2.26.0->tiktoken->openai-whisper==20240930) (3.4.1)\n",
            "Requirement already satisfied: idna<4,>=2.5 in /usr/local/lib/python3.11/dist-packages (from requests>=2.26.0->tiktoken->openai-whisper==20240930) (3.10)\n",
            "Requirement already satisfied: urllib3<3,>=1.21.1 in /usr/local/lib/python3.11/dist-packages (from requests>=2.26.0->tiktoken->openai-whisper==20240930) (2.3.0)\n",
            "Requirement already satisfied: certifi>=2017.4.17 in /usr/local/lib/python3.11/dist-packages (from requests>=2.26.0->tiktoken->openai-whisper==20240930) (2024.12.14)\n",
            "Requirement already satisfied: MarkupSafe>=2.0 in /usr/local/lib/python3.11/dist-packages (from jinja2->torch->openai-whisper==20240930) (3.0.2)\n",
            "Downloading tiktoken-0.8.0-cp311-cp311-manylinux_2_17_x86_64.manylinux2014_x86_64.whl (1.2 MB)\n",
            "\u001b[2K   \u001b[90m━━━━━━━━━━━━━━━━━━━━━━━━━━━━━━━━━━━━━━━━\u001b[0m \u001b[32m1.2/1.2 MB\u001b[0m \u001b[31m10.7 MB/s\u001b[0m eta \u001b[36m0:00:00\u001b[0m\n",
            "\u001b[?25hBuilding wheels for collected packages: openai-whisper\n",
            "  Building wheel for openai-whisper (pyproject.toml) ... \u001b[?25l\u001b[?25hdone\n",
            "  Created wheel for openai-whisper: filename=openai_whisper-20240930-py3-none-any.whl size=803669 sha256=b73ca08cca0ca0019830c513ef60b185abf1f7d89e243a7019246928bcf549f7\n",
            "  Stored in directory: /tmp/pip-ephem-wheel-cache-t4zha8u3/wheels/1f/1d/98/9583695e6695a6ac0ad42d87511097dce5ba486647dbfecb0e\n",
            "Successfully built openai-whisper\n",
            "Installing collected packages: tiktoken, openai-whisper\n",
            "Successfully installed openai-whisper-20240930 tiktoken-0.8.0\n",
            "Get:1 https://cloud.r-project.org/bin/linux/ubuntu jammy-cran40/ InRelease [3,626 B]\n",
            "Hit:2 http://archive.ubuntu.com/ubuntu jammy InRelease\n",
            "Get:3 http://security.ubuntu.com/ubuntu jammy-security InRelease [129 kB]\n",
            "Get:4 https://developer.download.nvidia.com/compute/cuda/repos/ubuntu2204/x86_64  InRelease [1,581 B]\n",
            "Get:5 http://archive.ubuntu.com/ubuntu jammy-updates InRelease [128 kB]\n",
            "Get:6 https://r2u.stat.illinois.edu/ubuntu jammy InRelease [6,555 B]\n",
            "Get:7 https://cloud.r-project.org/bin/linux/ubuntu jammy-cran40/ Packages [62.5 kB]\n",
            "Hit:8 https://ppa.launchpadcontent.net/deadsnakes/ppa/ubuntu jammy InRelease\n",
            "Get:9 http://archive.ubuntu.com/ubuntu jammy-backports InRelease [127 kB]\n",
            "Hit:10 https://ppa.launchpadcontent.net/graphics-drivers/ppa/ubuntu jammy InRelease\n",
            "Hit:11 https://ppa.launchpadcontent.net/ubuntugis/ppa/ubuntu jammy InRelease\n",
            "Get:12 https://developer.download.nvidia.com/compute/cuda/repos/ubuntu2204/x86_64  Packages [1,234 kB]\n",
            "Get:13 https://r2u.stat.illinois.edu/ubuntu jammy/main amd64 Packages [2,641 kB]\n",
            "Get:14 http://security.ubuntu.com/ubuntu jammy-security/universe amd64 Packages [1,228 kB]\n",
            "Get:15 http://archive.ubuntu.com/ubuntu jammy-updates/universe amd64 Packages [1,519 kB]\n",
            "Get:16 https://r2u.stat.illinois.edu/ubuntu jammy/main all Packages [8,606 kB]\n",
            "Get:17 http://security.ubuntu.com/ubuntu jammy-security/main amd64 Packages [2,561 kB]\n",
            "Get:18 http://archive.ubuntu.com/ubuntu jammy-updates/main amd64 Packages [2,860 kB]\n",
            "Fetched 21.1 MB in 3s (7,353 kB/s)\n",
            "Reading package lists... Done\n",
            "Building dependency tree... Done\n",
            "Reading state information... Done\n",
            "65 packages can be upgraded. Run 'apt list --upgradable' to see them.\n",
            "\u001b[1;33mW: \u001b[0mSkipping acquire of configured file 'main/source/Sources' as repository 'https://r2u.stat.illinois.edu/ubuntu jammy InRelease' does not seem to provide it (sources.list entry misspelt?)\u001b[0m\n",
            "Reading package lists... Done\n",
            "Building dependency tree... Done\n",
            "Reading state information... Done\n",
            "ffmpeg is already the newest version (7:4.4.2-0ubuntu0.22.04.1).\n",
            "0 upgraded, 0 newly installed, 0 to remove and 65 not upgraded.\n"
          ]
        }
      ],
      "source": [
        "!pip install git+https://github.com/openai/whisper.git\n",
        "!apt update && apt install -y ffmpeg"
      ]
    },
    {
      "cell_type": "markdown",
      "metadata": {
        "id": "f53tg5n8qd4W"
      },
      "source": [
        "#Audio Transcription with Whisper"
      ]
    },
    {
      "cell_type": "code",
      "execution_count": 4,
      "metadata": {
        "colab": {
          "base_uri": "https://localhost:8080/"
        },
        "id": "cWyrtaz8AoWV",
        "outputId": "dbe89054-b181-4309-9652-c9ae688d9f0a"
      },
      "outputs": [
        {
          "name": "stderr",
          "output_type": "stream",
          "text": [
            "100%|███████████████████████████████████████| 139M/139M [00:01<00:00, 98.3MiB/s]\n",
            "/usr/local/lib/python3.11/dist-packages/whisper/__init__.py:150: FutureWarning: You are using `torch.load` with `weights_only=False` (the current default value), which uses the default pickle module implicitly. It is possible to construct malicious pickle data which will execute arbitrary code during unpickling (See https://github.com/pytorch/pytorch/blob/main/SECURITY.md#untrusted-models for more details). In a future release, the default value for `weights_only` will be flipped to `True`. This limits the functions that could be executed during unpickling. Arbitrary objects will no longer be allowed to be loaded via this mode unless they are explicitly allowlisted by the user via `torch.serialization.add_safe_globals`. We recommend you start setting `weights_only=True` for any use case where you don't have full control of the loaded file. Please open an issue on GitHub for any issues related to this experimental feature.\n",
            "  checkpoint = torch.load(fp, map_location=device)\n",
            "/usr/local/lib/python3.11/dist-packages/whisper/transcribe.py:132: UserWarning: FP16 is not supported on CPU; using FP32 instead\n",
            "  warnings.warn(\"FP16 is not supported on CPU; using FP32 instead\")\n"
          ]
        }
      ],
      "source": [
        "import whisper\n",
        "\n",
        "# Load the model\n",
        "model = whisper.load_model(\"base\")\n",
        "\n",
        "# Transcribe the audio file\n",
        "result = model.transcribe(\"output_audio.mp3\", language=\"en\")\n",
        "\n",
        "# Access the segments\n",
        "segments = result[\"segments\"]"
      ]
    },
    {
      "cell_type": "code",
      "execution_count": 5,
      "metadata": {
        "colab": {
          "base_uri": "https://localhost:8080/"
        },
        "id": "cxrcMQ85Cecr",
        "outputId": "3bdf87a1-5a2f-4eed-9770-a6a92fc61023"
      },
      "outputs": [
        {
          "name": "stdout",
          "output_type": "stream",
          "text": [
            "SRT file generated: subtitles_en.srt\n"
          ]
        }
      ],
      "source": [
        "def write_srt(segments, output_file):\n",
        "    with open(output_file, \"w\") as f:\n",
        "        for i, segment in enumerate(segments):\n",
        "            # SRT format index\n",
        "            f.write(f\"{i + 1}\\n\")\n",
        "\n",
        "            # Start and end timestamps in HH:MM:SS,ms format\n",
        "            start = segment[\"start\"]\n",
        "            end = segment[\"end\"]\n",
        "            f.write(f\"{format_timestamp(start)} --> {format_timestamp(end)}\\n\")\n",
        "\n",
        "            # Text of the segment\n",
        "            f.write(f\"{segment['text']}\\n\\n\")\n",
        "\n",
        "def format_timestamp(seconds):\n",
        "    hours = int(seconds // 3600)\n",
        "    minutes = int((seconds % 3600) // 60)\n",
        "    seconds = seconds % 60\n",
        "    milliseconds = int((seconds % 1) * 1000)\n",
        "    return f\"{hours:02}:{minutes:02}:{int(seconds):02},{milliseconds:03}\"\n",
        "\n",
        "# Write SRT file\n",
        "write_srt(segments, \"subtitles_en.srt\")\n",
        "print(\"SRT file generated: subtitles_en.srt\")"
      ]
    },
    {
      "cell_type": "markdown",
      "metadata": {
        "id": "mtWPnxDZqi_1"
      },
      "source": [
        "#Parsing SRT Files"
      ]
    },
    {
      "cell_type": "code",
      "execution_count": 6,
      "metadata": {
        "id": "mrzO2Q_8Bhe7"
      },
      "outputs": [],
      "source": [
        "import re\n",
        "\n",
        "def parse_srt(file_path):\n",
        "    with open(file_path, \"r\") as f:\n",
        "        srt_data = f.read()\n",
        "\n",
        "    pattern = r\"(\\d+)\\n(\\d{2}:\\d{2}:\\d{2},\\d{3} --> \\d{2}:\\d{2}:\\d{2},\\d{3})\\n(.*?)\\n\\n\"\n",
        "    matches = re.findall(pattern, srt_data, re.DOTALL)\n",
        "    subtitles = [{\"index\": m[0], \"timestamp\": m[1], \"text\": m[2]} for m in matches]\n",
        "    return subtitles\n",
        "\n",
        "english_subtitles = parse_srt(\"subtitles_en.srt\")"
      ]
    },
    {
      "cell_type": "code",
      "execution_count": 7,
      "metadata": {
        "colab": {
          "base_uri": "https://localhost:8080/"
        },
        "id": "Q1jwUbqRCzY8",
        "outputId": "14e98b7c-2066-403b-e9da-ca962ed044af"
      },
      "outputs": [
        {
          "name": "stdout",
          "output_type": "stream",
          "text": [
            "Collecting googletrans==3.1.0a0\n",
            "  Downloading googletrans-3.1.0a0.tar.gz (19 kB)\n",
            "  Preparing metadata (setup.py) ... \u001b[?25l\u001b[?25hdone\n",
            "Collecting httpx==0.13.3 (from googletrans==3.1.0a0)\n",
            "  Downloading httpx-0.13.3-py3-none-any.whl.metadata (25 kB)\n",
            "Requirement already satisfied: certifi in /usr/local/lib/python3.11/dist-packages (from httpx==0.13.3->googletrans==3.1.0a0) (2024.12.14)\n",
            "Collecting hstspreload (from httpx==0.13.3->googletrans==3.1.0a0)\n",
            "  Downloading hstspreload-2025.1.1-py3-none-any.whl.metadata (2.1 kB)\n",
            "Requirement already satisfied: sniffio in /usr/local/lib/python3.11/dist-packages (from httpx==0.13.3->googletrans==3.1.0a0) (1.3.1)\n",
            "Collecting chardet==3.* (from httpx==0.13.3->googletrans==3.1.0a0)\n",
            "  Downloading chardet-3.0.4-py2.py3-none-any.whl.metadata (3.2 kB)\n",
            "Collecting idna==2.* (from httpx==0.13.3->googletrans==3.1.0a0)\n",
            "  Downloading idna-2.10-py2.py3-none-any.whl.metadata (9.1 kB)\n",
            "Collecting rfc3986<2,>=1.3 (from httpx==0.13.3->googletrans==3.1.0a0)\n",
            "  Downloading rfc3986-1.5.0-py2.py3-none-any.whl.metadata (6.5 kB)\n",
            "Collecting httpcore==0.9.* (from httpx==0.13.3->googletrans==3.1.0a0)\n",
            "  Downloading httpcore-0.9.1-py3-none-any.whl.metadata (4.6 kB)\n",
            "Collecting h11<0.10,>=0.8 (from httpcore==0.9.*->httpx==0.13.3->googletrans==3.1.0a0)\n",
            "  Downloading h11-0.9.0-py2.py3-none-any.whl.metadata (8.1 kB)\n",
            "Collecting h2==3.* (from httpcore==0.9.*->httpx==0.13.3->googletrans==3.1.0a0)\n",
            "  Downloading h2-3.2.0-py2.py3-none-any.whl.metadata (32 kB)\n",
            "Collecting hyperframe<6,>=5.2.0 (from h2==3.*->httpcore==0.9.*->httpx==0.13.3->googletrans==3.1.0a0)\n",
            "  Downloading hyperframe-5.2.0-py2.py3-none-any.whl.metadata (7.2 kB)\n",
            "Collecting hpack<4,>=3.0 (from h2==3.*->httpcore==0.9.*->httpx==0.13.3->googletrans==3.1.0a0)\n",
            "  Downloading hpack-3.0.0-py2.py3-none-any.whl.metadata (7.0 kB)\n",
            "Downloading httpx-0.13.3-py3-none-any.whl (55 kB)\n",
            "\u001b[2K   \u001b[90m━━━━━━━━━━━━━━━━━━━━━━━━━━━━━━━━━━━━━━━━\u001b[0m \u001b[32m55.1/55.1 kB\u001b[0m \u001b[31m4.5 MB/s\u001b[0m eta \u001b[36m0:00:00\u001b[0m\n",
            "\u001b[?25hDownloading chardet-3.0.4-py2.py3-none-any.whl (133 kB)\n",
            "\u001b[2K   \u001b[90m━━━━━━━━━━━━━━━━━━━━━━━━━━━━━━━━━━━━━━━━\u001b[0m \u001b[32m133.4/133.4 kB\u001b[0m \u001b[31m6.1 MB/s\u001b[0m eta \u001b[36m0:00:00\u001b[0m\n",
            "\u001b[?25hDownloading httpcore-0.9.1-py3-none-any.whl (42 kB)\n",
            "\u001b[2K   \u001b[90m━━━━━━━━━━━━━━━━━━━━━━━━━━━━━━━━━━━━━━━━\u001b[0m \u001b[32m42.6/42.6 kB\u001b[0m \u001b[31m3.7 MB/s\u001b[0m eta \u001b[36m0:00:00\u001b[0m\n",
            "\u001b[?25hDownloading idna-2.10-py2.py3-none-any.whl (58 kB)\n",
            "\u001b[2K   \u001b[90m━━━━━━━━━━━━━━━━━━━━━━━━━━━━━━━━━━━━━━━━\u001b[0m \u001b[32m58.8/58.8 kB\u001b[0m \u001b[31m4.0 MB/s\u001b[0m eta \u001b[36m0:00:00\u001b[0m\n",
            "\u001b[?25hDownloading h2-3.2.0-py2.py3-none-any.whl (65 kB)\n",
            "\u001b[2K   \u001b[90m━━━━━━━━━━━━━━━━━━━━━━━━━━━━━━━━━━━━━━━━\u001b[0m \u001b[32m65.0/65.0 kB\u001b[0m \u001b[31m5.8 MB/s\u001b[0m eta \u001b[36m0:00:00\u001b[0m\n",
            "\u001b[?25hDownloading rfc3986-1.5.0-py2.py3-none-any.whl (31 kB)\n",
            "Downloading hstspreload-2025.1.1-py3-none-any.whl (1.3 MB)\n",
            "\u001b[2K   \u001b[90m━━━━━━━━━━━━━━━━━━━━━━━━━━━━━━━━━━━━━━━━\u001b[0m \u001b[32m1.3/1.3 MB\u001b[0m \u001b[31m30.1 MB/s\u001b[0m eta \u001b[36m0:00:00\u001b[0m\n",
            "\u001b[?25hDownloading h11-0.9.0-py2.py3-none-any.whl (53 kB)\n",
            "\u001b[2K   \u001b[90m━━━━━━━━━━━━━━━━━━━━━━━━━━━━━━━━━━━━━━━━\u001b[0m \u001b[32m53.6/53.6 kB\u001b[0m \u001b[31m4.7 MB/s\u001b[0m eta \u001b[36m0:00:00\u001b[0m\n",
            "\u001b[?25hDownloading hpack-3.0.0-py2.py3-none-any.whl (38 kB)\n",
            "Downloading hyperframe-5.2.0-py2.py3-none-any.whl (12 kB)\n",
            "Building wheels for collected packages: googletrans\n",
            "  Building wheel for googletrans (setup.py) ... \u001b[?25l\u001b[?25hdone\n",
            "  Created wheel for googletrans: filename=googletrans-3.1.0a0-py3-none-any.whl size=16352 sha256=bfc82d175d9fe681a63753de8b4d4835ec050f5b82148afcad1b345236c54b58\n",
            "  Stored in directory: /root/.cache/pip/wheels/81/f2/e0/d578821d723b473d18610ea93810e4a5402463919f07e603d9\n",
            "Successfully built googletrans\n",
            "Installing collected packages: rfc3986, hyperframe, hpack, h11, chardet, idna, hstspreload, h2, httpcore, httpx, googletrans\n",
            "  Attempting uninstall: h11\n",
            "    Found existing installation: h11 0.14.0\n",
            "    Uninstalling h11-0.14.0:\n",
            "      Successfully uninstalled h11-0.14.0\n",
            "  Attempting uninstall: chardet\n",
            "    Found existing installation: chardet 5.2.0\n",
            "    Uninstalling chardet-5.2.0:\n",
            "      Successfully uninstalled chardet-5.2.0\n",
            "  Attempting uninstall: idna\n",
            "    Found existing installation: idna 3.10\n",
            "    Uninstalling idna-3.10:\n",
            "      Successfully uninstalled idna-3.10\n",
            "  Attempting uninstall: httpcore\n",
            "    Found existing installation: httpcore 1.0.7\n",
            "    Uninstalling httpcore-1.0.7:\n",
            "      Successfully uninstalled httpcore-1.0.7\n",
            "  Attempting uninstall: httpx\n",
            "    Found existing installation: httpx 0.28.1\n",
            "    Uninstalling httpx-0.28.1:\n",
            "      Successfully uninstalled httpx-0.28.1\n",
            "\u001b[31mERROR: pip's dependency resolver does not currently take into account all the packages that are installed. This behaviour is the source of the following dependency conflicts.\n",
            "openai 1.59.6 requires httpx<1,>=0.23.0, but you have httpx 0.13.3 which is incompatible.\n",
            "langsmith 0.2.10 requires httpx<1,>=0.23.0, but you have httpx 0.13.3 which is incompatible.\u001b[0m\u001b[31m\n",
            "\u001b[0mSuccessfully installed chardet-3.0.4 googletrans-3.1.0a0 h11-0.9.0 h2-3.2.0 hpack-3.0.0 hstspreload-2025.1.1 httpcore-0.9.1 httpx-0.13.3 hyperframe-5.2.0 idna-2.10 rfc3986-1.5.0\n"
          ]
        }
      ],
      "source": [
        "!pip install googletrans==3.1.0a0"
      ]
    },
    {
      "cell_type": "markdown",
      "metadata": {
        "id": "r-InOk2xqnFq"
      },
      "source": [
        "#Translating Subtitles"
      ]
    },
    {
      "cell_type": "code",
      "execution_count": 8,
      "metadata": {
        "id": "HyQsl6KNCIEK"
      },
      "outputs": [],
      "source": [
        "from googletrans import Translator\n",
        "\n",
        "translator = Translator()\n",
        "\n",
        "# Define target languages\n",
        "languages = {\n",
        "    \"Spanish\": \"es\",\n",
        "    \"French\": \"fr\",\n",
        "    \"German\": \"de\",\n",
        "    \"Japanese\": \"ja\",\n",
        "    \"Italian\": \"it\"\n",
        "}\n",
        "\n",
        "translated_subtitles = {}\n",
        "for lang, code in languages.items():\n",
        "    translated_subtitles[lang] = []\n",
        "    for subtitle in english_subtitles:\n",
        "        translated_text = translator.translate(subtitle[\"text\"], src=\"en\", dest=code).text\n",
        "        translated_subtitles[lang].append({\n",
        "            \"index\": subtitle[\"index\"],\n",
        "            \"timestamp\": subtitle[\"timestamp\"],\n",
        "            \"text\": translated_text\n",
        "        })"
      ]
    },
    {
      "cell_type": "code",
      "execution_count": 9,
      "metadata": {
        "id": "oswu446FCLNU"
      },
      "outputs": [],
      "source": [
        "def generate_srt(subtitles, file_path):\n",
        "    with open(file_path, \"w\") as f:\n",
        "        for subtitle in subtitles:\n",
        "            f.write(f\"{subtitle['index']}\\n\")\n",
        "            f.write(f\"{subtitle['timestamp']}\\n\")\n",
        "            f.write(f\"{subtitle['text']}\\n\\n\")\n",
        "\n",
        "for lang, subtitles in translated_subtitles.items():\n",
        "    generate_srt(subtitles, f\"subtitles_{lang.lower()}.srt\")"
      ]
    },
    {
      "cell_type": "code",
      "execution_count": 10,
      "metadata": {
        "colab": {
          "base_uri": "https://localhost:8080/"
        },
        "id": "jfyLjuajDMoA",
        "outputId": "2a76fa67-62df-4811-bd09-6456a785fdd9"
      },
      "outputs": [
        {
          "name": "stdout",
          "output_type": "stream",
          "text": [
            "Collecting gtts\n",
            "  Downloading gTTS-2.5.4-py3-none-any.whl.metadata (4.1 kB)\n",
            "Requirement already satisfied: requests<3,>=2.27 in /usr/local/lib/python3.11/dist-packages (from gtts) (2.32.3)\n",
            "Requirement already satisfied: click<8.2,>=7.1 in /usr/local/lib/python3.11/dist-packages (from gtts) (8.1.8)\n",
            "Requirement already satisfied: charset-normalizer<4,>=2 in /usr/local/lib/python3.11/dist-packages (from requests<3,>=2.27->gtts) (3.4.1)\n",
            "Requirement already satisfied: idna<4,>=2.5 in /usr/local/lib/python3.11/dist-packages (from requests<3,>=2.27->gtts) (2.10)\n",
            "Requirement already satisfied: urllib3<3,>=1.21.1 in /usr/local/lib/python3.11/dist-packages (from requests<3,>=2.27->gtts) (2.3.0)\n",
            "Requirement already satisfied: certifi>=2017.4.17 in /usr/local/lib/python3.11/dist-packages (from requests<3,>=2.27->gtts) (2024.12.14)\n",
            "Downloading gTTS-2.5.4-py3-none-any.whl (29 kB)\n",
            "Installing collected packages: gtts\n",
            "Successfully installed gtts-2.5.4\n"
          ]
        }
      ],
      "source": [
        "!pip install gtts"
      ]
    },
    {
      "cell_type": "markdown",
      "metadata": {
        "id": "-YwDrINhqwiQ"
      },
      "source": [
        "#Text-to-Speech Generation"
      ]
    },
    {
      "cell_type": "code",
      "execution_count": 11,
      "metadata": {
        "colab": {
          "base_uri": "https://localhost:8080/"
        },
        "id": "Bb353OSODM8X",
        "outputId": "505cdeba-45d1-4093-95ae-676e197bab67"
      },
      "outputs": [
        {
          "name": "stdout",
          "output_type": "stream",
          "text": [
            "Generated audio for es: dubbed_es.mp3\n",
            "Generated audio for fr: dubbed_fr.mp3\n",
            "Generated audio for de: dubbed_de.mp3\n",
            "Generated audio for ja: dubbed_ja.mp3\n",
            "Generated audio for it: dubbed_it.mp3\n"
          ]
        }
      ],
      "source": [
        "from gtts import gTTS\n",
        "import os\n",
        "\n",
        "# Function to extract only the dialogue from subtitles (exclude timestamps)\n",
        "def extract_dialogue_from_srt(srt_file):\n",
        "    with open(srt_file, \"r\") as file:\n",
        "        lines = file.readlines()\n",
        "\n",
        "    # Extract only dialogue text (excluding timestamps)\n",
        "    dialogue = []\n",
        "    for line in lines:\n",
        "        if \"-->\" not in line and line.strip() != \"\":\n",
        "            dialogue.append(line.strip())\n",
        "\n",
        "    # Join the dialogue into one string, which is what we need to pass to TTS\n",
        "    return \" \".join(dialogue)\n",
        "\n",
        "# Function to convert text to speech and save as audio\n",
        "def text_to_speech(text, language, output_filename):\n",
        "    tts = gTTS(text=text, lang=language, slow=False)\n",
        "    tts.save(output_filename)\n",
        "    print(f\"Generated audio for {language}: {output_filename}\")\n",
        "\n",
        "# Loop through each language and generate audio\n",
        "languages = {\n",
        "    \"spanish\": \"es\",\n",
        "    \"french\": \"fr\",\n",
        "    \"german\": \"de\",\n",
        "    \"japanese\": \"ja\",\n",
        "    \"italian\": \"it\"  # Optional language\n",
        "}\n",
        "\n",
        "# Generate audio for each translated subtitle\n",
        "for lang, code in languages.items():\n",
        "    srt_file = f\"subtitles_{lang}.srt\"  # Corresponding SRT file for the language\n",
        "    if os.path.exists(srt_file):\n",
        "        dialogue = extract_dialogue_from_srt(srt_file)\n",
        "        output_filename = f\"dubbed_{code}.mp3\"\n",
        "        text_to_speech(dialogue, code, output_filename)\n"
      ]
    },
    {
      "cell_type": "markdown",
      "metadata": {
        "id": "y74oUUd_q0cs"
      },
      "source": [
        "#Integrating Subtitles into Video"
      ]
    },
    {
      "cell_type": "code",
      "execution_count": 12,
      "metadata": {
        "colab": {
          "base_uri": "https://localhost:8080/"
        },
        "id": "mnDP8H4iF9m9",
        "outputId": "f97b3a47-624e-45d7-f249-e05e5c4fccf0"
      },
      "outputs": [
        {
          "name": "stdout",
          "output_type": "stream",
          "text": [
            "ffmpeg version 4.4.2-0ubuntu0.22.04.1 Copyright (c) 2000-2021 the FFmpeg developers\n",
            "  built with gcc 11 (Ubuntu 11.2.0-19ubuntu1)\n",
            "  configuration: --prefix=/usr --extra-version=0ubuntu0.22.04.1 --toolchain=hardened --libdir=/usr/lib/x86_64-linux-gnu --incdir=/usr/include/x86_64-linux-gnu --arch=amd64 --enable-gpl --disable-stripping --enable-gnutls --enable-ladspa --enable-libaom --enable-libass --enable-libbluray --enable-libbs2b --enable-libcaca --enable-libcdio --enable-libcodec2 --enable-libdav1d --enable-libflite --enable-libfontconfig --enable-libfreetype --enable-libfribidi --enable-libgme --enable-libgsm --enable-libjack --enable-libmp3lame --enable-libmysofa --enable-libopenjpeg --enable-libopenmpt --enable-libopus --enable-libpulse --enable-librabbitmq --enable-librubberband --enable-libshine --enable-libsnappy --enable-libsoxr --enable-libspeex --enable-libsrt --enable-libssh --enable-libtheora --enable-libtwolame --enable-libvidstab --enable-libvorbis --enable-libvpx --enable-libwebp --enable-libx265 --enable-libxml2 --enable-libxvid --enable-libzimg --enable-libzmq --enable-libzvbi --enable-lv2 --enable-omx --enable-openal --enable-opencl --enable-opengl --enable-sdl2 --enable-pocketsphinx --enable-librsvg --enable-libmfx --enable-libdc1394 --enable-libdrm --enable-libiec61883 --enable-chromaprint --enable-frei0r --enable-libx264 --enable-shared\n",
            "  libavutil      56. 70.100 / 56. 70.100\n",
            "  libavcodec     58.134.100 / 58.134.100\n",
            "  libavformat    58. 76.100 / 58. 76.100\n",
            "  libavdevice    58. 13.100 / 58. 13.100\n",
            "  libavfilter     7.110.100 /  7.110.100\n",
            "  libswscale      5.  9.100 /  5.  9.100\n",
            "  libswresample   3.  9.100 /  3.  9.100\n",
            "  libpostproc    55.  9.100 / 55.  9.100\n",
            "Input #0, mov,mp4,m4a,3gp,3g2,mj2, from 'input_video.mp4':\n",
            "  Metadata:\n",
            "    major_brand     : mp42\n",
            "    minor_version   : 0\n",
            "    compatible_brands: isommp42\n",
            "    encoder         : Google\n",
            "  Duration: 00:03:00.61, start: 0.000000, bitrate: 384 kb/s\n",
            "  Stream #0:0(und): Video: h264 (Main) (avc1 / 0x31637661), yuv420p(tv, bt709), 640x360 [SAR 1:1 DAR 16:9], 286 kb/s, 30 fps, 30 tbr, 15360 tbn, 60 tbc (default)\n",
            "    Metadata:\n",
            "      handler_name    : ISO Media file produced by Google Inc.\n",
            "      vendor_id       : [0][0][0][0]\n",
            "  Stream #0:1(eng): Audio: aac (LC) (mp4a / 0x6134706D), 44100 Hz, stereo, fltp, 96 kb/s (default)\n",
            "    Metadata:\n",
            "      handler_name    : ISO Media file produced by Google Inc.\n",
            "      vendor_id       : [0][0][0][0]\n",
            "Input #1, srt, from 'subtitles_en.srt':\n",
            "  Duration: N/A, bitrate: N/A\n",
            "  Stream #1:0: Subtitle: subrip\n",
            "Input #2, srt, from 'subtitles_spanish.srt':\n",
            "  Duration: N/A, bitrate: N/A\n",
            "  Stream #2:0: Subtitle: subrip\n",
            "Input #3, srt, from 'subtitles_french.srt':\n",
            "  Duration: N/A, bitrate: N/A\n",
            "  Stream #3:0: Subtitle: subrip\n",
            "Input #4, srt, from 'subtitles_german.srt':\n",
            "  Duration: N/A, bitrate: N/A\n",
            "  Stream #4:0: Subtitle: subrip\n",
            "Input #5, srt, from 'subtitles_japanese.srt':\n",
            "  Duration: N/A, bitrate: N/A\n",
            "  Stream #5:0: Subtitle: subrip\n",
            "Input #6, srt, from 'subtitles_italian.srt':\n",
            "  Duration: N/A, bitrate: N/A\n",
            "  Stream #6:0: Subtitle: subrip\n",
            "Output #0, mp4, to 'video_with_multiple_subtitles.mp4':\n",
            "  Metadata:\n",
            "    major_brand     : mp42\n",
            "    minor_version   : 0\n",
            "    compatible_brands: isommp42\n",
            "    encoder         : Lavf58.76.100\n",
            "  Stream #0:0(und): Video: h264 (Main) (avc1 / 0x31637661), yuv420p(tv, bt709), 640x360 [SAR 1:1 DAR 16:9], q=2-31, 286 kb/s, 30 fps, 30 tbr, 15360 tbn, 15360 tbc (default)\n",
            "    Metadata:\n",
            "      handler_name    : ISO Media file produced by Google Inc.\n",
            "      vendor_id       : [0][0][0][0]\n",
            "  Stream #0:1(eng): Audio: aac (LC) (mp4a / 0x6134706D), 44100 Hz, stereo, fltp, 96 kb/s (default)\n",
            "    Metadata:\n",
            "      handler_name    : ISO Media file produced by Google Inc.\n",
            "      vendor_id       : [0][0][0][0]\n",
            "  Stream #0:2(eng): Subtitle: mov_text (tx3g / 0x67337874)\n",
            "    Metadata:\n",
            "      encoder         : Lavc58.134.100 mov_text\n",
            "  Stream #0:3(spa): Subtitle: mov_text (tx3g / 0x67337874)\n",
            "    Metadata:\n",
            "      encoder         : Lavc58.134.100 mov_text\n",
            "  Stream #0:4(fra): Subtitle: mov_text (tx3g / 0x67337874)\n",
            "    Metadata:\n",
            "      encoder         : Lavc58.134.100 mov_text\n",
            "  Stream #0:5(deu): Subtitle: mov_text (tx3g / 0x67337874)\n",
            "    Metadata:\n",
            "      encoder         : Lavc58.134.100 mov_text\n",
            "  Stream #0:6(jpn): Subtitle: mov_text (tx3g / 0x67337874)\n",
            "    Metadata:\n",
            "      encoder         : Lavc58.134.100 mov_text\n",
            "  Stream #0:7(ita): Subtitle: mov_text (tx3g / 0x67337874)\n",
            "    Metadata:\n",
            "      encoder         : Lavc58.134.100 mov_text\n",
            "Stream mapping:\n",
            "  Stream #0:0 -> #0:0 (copy)\n",
            "  Stream #0:1 -> #0:1 (copy)\n",
            "  Stream #1:0 -> #0:2 (subrip (srt) -> mov_text (native))\n",
            "  Stream #2:0 -> #0:3 (subrip (srt) -> mov_text (native))\n",
            "  Stream #3:0 -> #0:4 (subrip (srt) -> mov_text (native))\n",
            "  Stream #4:0 -> #0:5 (subrip (srt) -> mov_text (native))\n",
            "  Stream #5:0 -> #0:6 (subrip (srt) -> mov_text (native))\n",
            "  Stream #6:0 -> #0:7 (subrip (srt) -> mov_text (native))\n",
            "Press [q] to stop, [?] for help\n",
            "frame= 5417 fps=0.0 q=-1.0 Lsize=    8593kB time=00:03:00.58 bitrate= 389.8kbits/s speed=1.28e+03x    \n",
            "video:6305kB audio:2117kB subtitle:16kB other streams:0kB global headers:0kB muxing overhead: 1.847683%\n"
          ]
        }
      ],
      "source": [
        "input_video = \"input_video.mp4\"\n",
        "input_subtitle_en = \"subtitles_en.srt\"\n",
        "input_subtitle_es = \"subtitles_spanish.srt\"\n",
        "input_subtitle_fr = \"subtitles_french.srt\"\n",
        "input_subtitle_de = \"subtitles_german.srt\"\n",
        "input_subtitle_ja = \"subtitles_japanese.srt\"\n",
        "input_subtitle_it = \"subtitles_italian.srt\"\n",
        "output_video = \"video_with_multiple_subtitles.mp4\"\n",
        "\n",
        "!ffmpeg -i {input_video} -i {input_subtitle_en} -i {input_subtitle_es} -i {input_subtitle_fr} -i {input_subtitle_de} -i {input_subtitle_ja} -i {input_subtitle_it} \\\n",
        "-map 0 -map 1 -map 2 -map 3 -map 4 -map 5 -map 6 \\\n",
        "-metadata:s:s:0 language=eng -metadata:s:s:1 language=spa -metadata:s:s:2 language=fra -metadata:s:s:3 language=deu -metadata:s:s:4 language=jpn -metadata:s:s:5 language=ita \\\n",
        "-c:v copy -c:a copy -c:s mov_text {output_video}\n"
      ]
    },
    {
      "cell_type": "code",
      "execution_count": 13,
      "metadata": {
        "colab": {
          "base_uri": "https://localhost:8080/"
        },
        "id": "dgE6KuRmVkjQ",
        "outputId": "73b56c2f-2cbc-4dbf-f8d6-5bc78327b3b6"
      },
      "outputs": [
        {
          "name": "stdout",
          "output_type": "stream",
          "text": [
            "ffmpeg version 4.4.2-0ubuntu0.22.04.1 Copyright (c) 2000-2021 the FFmpeg developers\n",
            "  built with gcc 11 (Ubuntu 11.2.0-19ubuntu1)\n",
            "  configuration: --prefix=/usr --extra-version=0ubuntu0.22.04.1 --toolchain=hardened --libdir=/usr/lib/x86_64-linux-gnu --incdir=/usr/include/x86_64-linux-gnu --arch=amd64 --enable-gpl --disable-stripping --enable-gnutls --enable-ladspa --enable-libaom --enable-libass --enable-libbluray --enable-libbs2b --enable-libcaca --enable-libcdio --enable-libcodec2 --enable-libdav1d --enable-libflite --enable-libfontconfig --enable-libfreetype --enable-libfribidi --enable-libgme --enable-libgsm --enable-libjack --enable-libmp3lame --enable-libmysofa --enable-libopenjpeg --enable-libopenmpt --enable-libopus --enable-libpulse --enable-librabbitmq --enable-librubberband --enable-libshine --enable-libsnappy --enable-libsoxr --enable-libspeex --enable-libsrt --enable-libssh --enable-libtheora --enable-libtwolame --enable-libvidstab --enable-libvorbis --enable-libvpx --enable-libwebp --enable-libx265 --enable-libxml2 --enable-libxvid --enable-libzimg --enable-libzmq --enable-libzvbi --enable-lv2 --enable-omx --enable-openal --enable-opencl --enable-opengl --enable-sdl2 --enable-pocketsphinx --enable-librsvg --enable-libmfx --enable-libdc1394 --enable-libdrm --enable-libiec61883 --enable-chromaprint --enable-frei0r --enable-libx264 --enable-shared\n",
            "  libavutil      56. 70.100 / 56. 70.100\n",
            "  libavcodec     58.134.100 / 58.134.100\n",
            "  libavformat    58. 76.100 / 58. 76.100\n",
            "  libavdevice    58. 13.100 / 58. 13.100\n",
            "  libavfilter     7.110.100 /  7.110.100\n",
            "  libswscale      5.  9.100 /  5.  9.100\n",
            "  libswresample   3.  9.100 /  3.  9.100\n",
            "  libpostproc    55.  9.100 / 55.  9.100\n",
            "Input #0, mov,mp4,m4a,3gp,3g2,mj2, from 'input_video.mp4':\n",
            "  Metadata:\n",
            "    major_brand     : mp42\n",
            "    minor_version   : 0\n",
            "    compatible_brands: isommp42\n",
            "    encoder         : Google\n",
            "  Duration: 00:03:00.61, start: 0.000000, bitrate: 384 kb/s\n",
            "  Stream #0:0(und): Video: h264 (Main) (avc1 / 0x31637661), yuv420p(tv, bt709), 640x360 [SAR 1:1 DAR 16:9], 286 kb/s, 30 fps, 30 tbr, 15360 tbn, 60 tbc (default)\n",
            "    Metadata:\n",
            "      handler_name    : ISO Media file produced by Google Inc.\n",
            "      vendor_id       : [0][0][0][0]\n",
            "  Stream #0:1(eng): Audio: aac (LC) (mp4a / 0x6134706D), 44100 Hz, stereo, fltp, 96 kb/s (default)\n",
            "    Metadata:\n",
            "      handler_name    : ISO Media file produced by Google Inc.\n",
            "      vendor_id       : [0][0][0][0]\n",
            "\u001b[0;35m[mp3 @ 0x5d16d1a50980] \u001b[0m\u001b[0;33mEstimating duration from bitrate, this may be inaccurate\n",
            "\u001b[0mInput #1, mp3, from 'dubbed_es.mp3':\n",
            "  Duration: 00:03:28.56, start: 0.000000, bitrate: 64 kb/s\n",
            "  Stream #1:0: Audio: mp3, 24000 Hz, mono, fltp, 64 kb/s\n",
            "Input #2, srt, from 'subtitles_spanish.srt':\n",
            "  Duration: N/A, bitrate: N/A\n",
            "  Stream #2:0: Subtitle: subrip\n",
            "Stream mapping:\n",
            "  Stream #0:0 -> #0:0 (copy)\n",
            "  Stream #1:0 -> #0:1 (mp3 (mp3float) -> aac (native))\n",
            "  Stream #2:0 -> #0:2 (subrip (srt) -> mov_text (native))\n",
            "Press [q] to stop, [?] for help\n",
            "Output #0, mp4, to 'Video_Spanish.mp4':\n",
            "  Metadata:\n",
            "    major_brand     : mp42\n",
            "    minor_version   : 0\n",
            "    compatible_brands: isommp42\n",
            "    encoder         : Lavf58.76.100\n",
            "  Stream #0:0(und): Video: h264 (Main) (avc1 / 0x31637661), yuv420p(tv, bt709), 640x360 [SAR 1:1 DAR 16:9], q=2-31, 286 kb/s, 30 fps, 30 tbr, 15360 tbn, 15360 tbc (default)\n",
            "    Metadata:\n",
            "      handler_name    : ISO Media file produced by Google Inc.\n",
            "      vendor_id       : [0][0][0][0]\n",
            "  Stream #0:1(spa): Audio: aac (LC) (mp4a / 0x6134706D), 24000 Hz, mono, fltp, 69 kb/s\n",
            "    Metadata:\n",
            "      encoder         : Lavc58.134.100 aac\n",
            "  Stream #0:2(spa): Subtitle: mov_text (tx3g / 0x67337874)\n",
            "    Metadata:\n",
            "      encoder         : Lavc58.134.100 mov_text\n",
            "frame= 5417 fps=1323 q=-1.0 Lsize=    8451kB time=00:03:28.55 bitrate= 332.0kbits/s speed=50.9x    \n",
            "video:6305kB audio:2040kB subtitle:2kB other streams:0kB global headers:0kB muxing overhead: 1.238897%\n",
            "\u001b[1;36m[aac @ 0x5d16d1a9c300] \u001b[0mQavg: 6008.347\n",
            "Generated video for Spanish: Video_Spanish.mp4\n",
            "ffmpeg version 4.4.2-0ubuntu0.22.04.1 Copyright (c) 2000-2021 the FFmpeg developers\n",
            "  built with gcc 11 (Ubuntu 11.2.0-19ubuntu1)\n",
            "  configuration: --prefix=/usr --extra-version=0ubuntu0.22.04.1 --toolchain=hardened --libdir=/usr/lib/x86_64-linux-gnu --incdir=/usr/include/x86_64-linux-gnu --arch=amd64 --enable-gpl --disable-stripping --enable-gnutls --enable-ladspa --enable-libaom --enable-libass --enable-libbluray --enable-libbs2b --enable-libcaca --enable-libcdio --enable-libcodec2 --enable-libdav1d --enable-libflite --enable-libfontconfig --enable-libfreetype --enable-libfribidi --enable-libgme --enable-libgsm --enable-libjack --enable-libmp3lame --enable-libmysofa --enable-libopenjpeg --enable-libopenmpt --enable-libopus --enable-libpulse --enable-librabbitmq --enable-librubberband --enable-libshine --enable-libsnappy --enable-libsoxr --enable-libspeex --enable-libsrt --enable-libssh --enable-libtheora --enable-libtwolame --enable-libvidstab --enable-libvorbis --enable-libvpx --enable-libwebp --enable-libx265 --enable-libxml2 --enable-libxvid --enable-libzimg --enable-libzmq --enable-libzvbi --enable-lv2 --enable-omx --enable-openal --enable-opencl --enable-opengl --enable-sdl2 --enable-pocketsphinx --enable-librsvg --enable-libmfx --enable-libdc1394 --enable-libdrm --enable-libiec61883 --enable-chromaprint --enable-frei0r --enable-libx264 --enable-shared\n",
            "  libavutil      56. 70.100 / 56. 70.100\n",
            "  libavcodec     58.134.100 / 58.134.100\n",
            "  libavformat    58. 76.100 / 58. 76.100\n",
            "  libavdevice    58. 13.100 / 58. 13.100\n",
            "  libavfilter     7.110.100 /  7.110.100\n",
            "  libswscale      5.  9.100 /  5.  9.100\n",
            "  libswresample   3.  9.100 /  3.  9.100\n",
            "  libpostproc    55.  9.100 / 55.  9.100\n",
            "Input #0, mov,mp4,m4a,3gp,3g2,mj2, from 'input_video.mp4':\n",
            "  Metadata:\n",
            "    major_brand     : mp42\n",
            "    minor_version   : 0\n",
            "    compatible_brands: isommp42\n",
            "    encoder         : Google\n",
            "  Duration: 00:03:00.61, start: 0.000000, bitrate: 384 kb/s\n",
            "  Stream #0:0(und): Video: h264 (Main) (avc1 / 0x31637661), yuv420p(tv, bt709), 640x360 [SAR 1:1 DAR 16:9], 286 kb/s, 30 fps, 30 tbr, 15360 tbn, 60 tbc (default)\n",
            "    Metadata:\n",
            "      handler_name    : ISO Media file produced by Google Inc.\n",
            "      vendor_id       : [0][0][0][0]\n",
            "  Stream #0:1(eng): Audio: aac (LC) (mp4a / 0x6134706D), 44100 Hz, stereo, fltp, 96 kb/s (default)\n",
            "    Metadata:\n",
            "      handler_name    : ISO Media file produced by Google Inc.\n",
            "      vendor_id       : [0][0][0][0]\n",
            "\u001b[0;35m[mp3 @ 0x592aac7bb980] \u001b[0m\u001b[0;33mEstimating duration from bitrate, this may be inaccurate\n",
            "\u001b[0mInput #1, mp3, from 'dubbed_fr.mp3':\n",
            "  Duration: 00:03:08.78, start: 0.000000, bitrate: 64 kb/s\n",
            "  Stream #1:0: Audio: mp3, 24000 Hz, mono, fltp, 64 kb/s\n",
            "Input #2, srt, from 'subtitles_french.srt':\n",
            "  Duration: N/A, bitrate: N/A\n",
            "  Stream #2:0: Subtitle: subrip\n",
            "Stream mapping:\n",
            "  Stream #0:0 -> #0:0 (copy)\n",
            "  Stream #1:0 -> #0:1 (mp3 (mp3float) -> aac (native))\n",
            "  Stream #2:0 -> #0:2 (subrip (srt) -> mov_text (native))\n",
            "Press [q] to stop, [?] for help\n",
            "Output #0, mp4, to 'Video_French.mp4':\n",
            "  Metadata:\n",
            "    major_brand     : mp42\n",
            "    minor_version   : 0\n",
            "    compatible_brands: isommp42\n",
            "    encoder         : Lavf58.76.100\n",
            "  Stream #0:0(und): Video: h264 (Main) (avc1 / 0x31637661), yuv420p(tv, bt709), 640x360 [SAR 1:1 DAR 16:9], q=2-31, 286 kb/s, 30 fps, 30 tbr, 15360 tbn, 15360 tbc (default)\n",
            "    Metadata:\n",
            "      handler_name    : ISO Media file produced by Google Inc.\n",
            "      vendor_id       : [0][0][0][0]\n",
            "  Stream #0:1(fre): Audio: aac (LC) (mp4a / 0x6134706D), 24000 Hz, mono, fltp, 69 kb/s\n",
            "    Metadata:\n",
            "      encoder         : Lavc58.134.100 aac\n",
            "  Stream #0:2(fre): Subtitle: mov_text (tx3g / 0x67337874)\n",
            "    Metadata:\n",
            "      encoder         : Lavc58.134.100 mov_text\n",
            "frame= 5417 fps=1153 q=-1.0 Lsize=    8195kB time=00:03:08.75 bitrate= 355.7kbits/s speed=40.2x    \n",
            "video:6305kB audio:1786kB subtitle:3kB other streams:0kB global headers:0kB muxing overhead: 1.255415%\n",
            "\u001b[1;36m[aac @ 0x592aac807300] \u001b[0mQavg: 4577.381\n",
            "Generated video for French: Video_French.mp4\n",
            "ffmpeg version 4.4.2-0ubuntu0.22.04.1 Copyright (c) 2000-2021 the FFmpeg developers\n",
            "  built with gcc 11 (Ubuntu 11.2.0-19ubuntu1)\n",
            "  configuration: --prefix=/usr --extra-version=0ubuntu0.22.04.1 --toolchain=hardened --libdir=/usr/lib/x86_64-linux-gnu --incdir=/usr/include/x86_64-linux-gnu --arch=amd64 --enable-gpl --disable-stripping --enable-gnutls --enable-ladspa --enable-libaom --enable-libass --enable-libbluray --enable-libbs2b --enable-libcaca --enable-libcdio --enable-libcodec2 --enable-libdav1d --enable-libflite --enable-libfontconfig --enable-libfreetype --enable-libfribidi --enable-libgme --enable-libgsm --enable-libjack --enable-libmp3lame --enable-libmysofa --enable-libopenjpeg --enable-libopenmpt --enable-libopus --enable-libpulse --enable-librabbitmq --enable-librubberband --enable-libshine --enable-libsnappy --enable-libsoxr --enable-libspeex --enable-libsrt --enable-libssh --enable-libtheora --enable-libtwolame --enable-libvidstab --enable-libvorbis --enable-libvpx --enable-libwebp --enable-libx265 --enable-libxml2 --enable-libxvid --enable-libzimg --enable-libzmq --enable-libzvbi --enable-lv2 --enable-omx --enable-openal --enable-opencl --enable-opengl --enable-sdl2 --enable-pocketsphinx --enable-librsvg --enable-libmfx --enable-libdc1394 --enable-libdrm --enable-libiec61883 --enable-chromaprint --enable-frei0r --enable-libx264 --enable-shared\n",
            "  libavutil      56. 70.100 / 56. 70.100\n",
            "  libavcodec     58.134.100 / 58.134.100\n",
            "  libavformat    58. 76.100 / 58. 76.100\n",
            "  libavdevice    58. 13.100 / 58. 13.100\n",
            "  libavfilter     7.110.100 /  7.110.100\n",
            "  libswscale      5.  9.100 /  5.  9.100\n",
            "  libswresample   3.  9.100 /  3.  9.100\n",
            "  libpostproc    55.  9.100 / 55.  9.100\n",
            "Input #0, mov,mp4,m4a,3gp,3g2,mj2, from 'input_video.mp4':\n",
            "  Metadata:\n",
            "    major_brand     : mp42\n",
            "    minor_version   : 0\n",
            "    compatible_brands: isommp42\n",
            "    encoder         : Google\n",
            "  Duration: 00:03:00.61, start: 0.000000, bitrate: 384 kb/s\n",
            "  Stream #0:0(und): Video: h264 (Main) (avc1 / 0x31637661), yuv420p(tv, bt709), 640x360 [SAR 1:1 DAR 16:9], 286 kb/s, 30 fps, 30 tbr, 15360 tbn, 60 tbc (default)\n",
            "    Metadata:\n",
            "      handler_name    : ISO Media file produced by Google Inc.\n",
            "      vendor_id       : [0][0][0][0]\n",
            "  Stream #0:1(eng): Audio: aac (LC) (mp4a / 0x6134706D), 44100 Hz, stereo, fltp, 96 kb/s (default)\n",
            "    Metadata:\n",
            "      handler_name    : ISO Media file produced by Google Inc.\n",
            "      vendor_id       : [0][0][0][0]\n",
            "\u001b[0;35m[mp3 @ 0x58be1a768980] \u001b[0m\u001b[0;33mEstimating duration from bitrate, this may be inaccurate\n",
            "\u001b[0mInput #1, mp3, from 'dubbed_de.mp3':\n",
            "  Duration: 00:03:36.74, start: 0.000000, bitrate: 64 kb/s\n",
            "  Stream #1:0: Audio: mp3, 24000 Hz, mono, fltp, 64 kb/s\n",
            "Input #2, srt, from 'subtitles_german.srt':\n",
            "  Duration: N/A, bitrate: N/A\n",
            "  Stream #2:0: Subtitle: subrip\n",
            "Stream mapping:\n",
            "  Stream #0:0 -> #0:0 (copy)\n",
            "  Stream #1:0 -> #0:1 (mp3 (mp3float) -> aac (native))\n",
            "  Stream #2:0 -> #0:2 (subrip (srt) -> mov_text (native))\n",
            "Press [q] to stop, [?] for help\n",
            "Output #0, mp4, to 'Video_German.mp4':\n",
            "  Metadata:\n",
            "    major_brand     : mp42\n",
            "    minor_version   : 0\n",
            "    compatible_brands: isommp42\n",
            "    encoder         : Lavf58.76.100\n",
            "  Stream #0:0(und): Video: h264 (Main) (avc1 / 0x31637661), yuv420p(tv, bt709), 640x360 [SAR 1:1 DAR 16:9], q=2-31, 286 kb/s, 30 fps, 30 tbr, 15360 tbn, 15360 tbc (default)\n",
            "    Metadata:\n",
            "      handler_name    : ISO Media file produced by Google Inc.\n",
            "      vendor_id       : [0][0][0][0]\n",
            "  Stream #0:1(ger): Audio: aac (LC) (mp4a / 0x6134706D), 24000 Hz, mono, fltp, 69 kb/s\n",
            "    Metadata:\n",
            "      encoder         : Lavc58.134.100 aac\n",
            "  Stream #0:2(ger): Subtitle: mov_text (tx3g / 0x67337874)\n",
            "    Metadata:\n",
            "      encoder         : Lavc58.134.100 mov_text\n",
            "frame= 5417 fps=1121 q=-1.0 Lsize=    8432kB time=00:03:36.70 bitrate= 318.8kbits/s speed=44.8x    \n",
            "video:6305kB audio:2021kB subtitle:3kB other streams:0kB global headers:0kB muxing overhead: 1.250777%\n",
            "\u001b[1;36m[aac @ 0x58be1a7b9bc0] \u001b[0mQavg: 5302.985\n",
            "Generated video for German: Video_German.mp4\n",
            "ffmpeg version 4.4.2-0ubuntu0.22.04.1 Copyright (c) 2000-2021 the FFmpeg developers\n",
            "  built with gcc 11 (Ubuntu 11.2.0-19ubuntu1)\n",
            "  configuration: --prefix=/usr --extra-version=0ubuntu0.22.04.1 --toolchain=hardened --libdir=/usr/lib/x86_64-linux-gnu --incdir=/usr/include/x86_64-linux-gnu --arch=amd64 --enable-gpl --disable-stripping --enable-gnutls --enable-ladspa --enable-libaom --enable-libass --enable-libbluray --enable-libbs2b --enable-libcaca --enable-libcdio --enable-libcodec2 --enable-libdav1d --enable-libflite --enable-libfontconfig --enable-libfreetype --enable-libfribidi --enable-libgme --enable-libgsm --enable-libjack --enable-libmp3lame --enable-libmysofa --enable-libopenjpeg --enable-libopenmpt --enable-libopus --enable-libpulse --enable-librabbitmq --enable-librubberband --enable-libshine --enable-libsnappy --enable-libsoxr --enable-libspeex --enable-libsrt --enable-libssh --enable-libtheora --enable-libtwolame --enable-libvidstab --enable-libvorbis --enable-libvpx --enable-libwebp --enable-libx265 --enable-libxml2 --enable-libxvid --enable-libzimg --enable-libzmq --enable-libzvbi --enable-lv2 --enable-omx --enable-openal --enable-opencl --enable-opengl --enable-sdl2 --enable-pocketsphinx --enable-librsvg --enable-libmfx --enable-libdc1394 --enable-libdrm --enable-libiec61883 --enable-chromaprint --enable-frei0r --enable-libx264 --enable-shared\n",
            "  libavutil      56. 70.100 / 56. 70.100\n",
            "  libavcodec     58.134.100 / 58.134.100\n",
            "  libavformat    58. 76.100 / 58. 76.100\n",
            "  libavdevice    58. 13.100 / 58. 13.100\n",
            "  libavfilter     7.110.100 /  7.110.100\n",
            "  libswscale      5.  9.100 /  5.  9.100\n",
            "  libswresample   3.  9.100 /  3.  9.100\n",
            "  libpostproc    55.  9.100 / 55.  9.100\n",
            "Input #0, mov,mp4,m4a,3gp,3g2,mj2, from 'input_video.mp4':\n",
            "  Metadata:\n",
            "    major_brand     : mp42\n",
            "    minor_version   : 0\n",
            "    compatible_brands: isommp42\n",
            "    encoder         : Google\n",
            "  Duration: 00:03:00.61, start: 0.000000, bitrate: 384 kb/s\n",
            "  Stream #0:0(und): Video: h264 (Main) (avc1 / 0x31637661), yuv420p(tv, bt709), 640x360 [SAR 1:1 DAR 16:9], 286 kb/s, 30 fps, 30 tbr, 15360 tbn, 60 tbc (default)\n",
            "    Metadata:\n",
            "      handler_name    : ISO Media file produced by Google Inc.\n",
            "      vendor_id       : [0][0][0][0]\n",
            "  Stream #0:1(eng): Audio: aac (LC) (mp4a / 0x6134706D), 44100 Hz, stereo, fltp, 96 kb/s (default)\n",
            "    Metadata:\n",
            "      handler_name    : ISO Media file produced by Google Inc.\n",
            "      vendor_id       : [0][0][0][0]\n",
            "\u001b[0;35m[mp3 @ 0x582c90a70980] \u001b[0m\u001b[0;33mEstimating duration from bitrate, this may be inaccurate\n",
            "\u001b[0mInput #1, mp3, from 'dubbed_ja.mp3':\n",
            "  Duration: 00:04:19.08, start: 0.000000, bitrate: 64 kb/s\n",
            "  Stream #1:0: Audio: mp3, 24000 Hz, mono, fltp, 64 kb/s\n",
            "Input #2, srt, from 'subtitles_japanese.srt':\n",
            "  Duration: N/A, bitrate: N/A\n",
            "  Stream #2:0: Subtitle: subrip\n",
            "Stream mapping:\n",
            "  Stream #0:0 -> #0:0 (copy)\n",
            "  Stream #1:0 -> #0:1 (mp3 (mp3float) -> aac (native))\n",
            "  Stream #2:0 -> #0:2 (subrip (srt) -> mov_text (native))\n",
            "Press [q] to stop, [?] for help\n",
            "Output #0, mp4, to 'Video_Japanese.mp4':\n",
            "  Metadata:\n",
            "    major_brand     : mp42\n",
            "    minor_version   : 0\n",
            "    compatible_brands: isommp42\n",
            "    encoder         : Lavf58.76.100\n",
            "  Stream #0:0(und): Video: h264 (Main) (avc1 / 0x31637661), yuv420p(tv, bt709), 640x360 [SAR 1:1 DAR 16:9], q=2-31, 286 kb/s, 30 fps, 30 tbr, 15360 tbn, 15360 tbc (default)\n",
            "    Metadata:\n",
            "      handler_name    : ISO Media file produced by Google Inc.\n",
            "      vendor_id       : [0][0][0][0]\n",
            "  Stream #0:1(jap): Audio: aac (LC) (mp4a / 0x6134706D), 24000 Hz, mono, fltp, 69 kb/s\n",
            "    Metadata:\n",
            "      encoder         : Lavc58.134.100 aac\n",
            "  Stream #0:2(jap): Subtitle: mov_text (tx3g / 0x67337874)\n",
            "    Metadata:\n",
            "      encoder         : Lavc58.134.100 mov_text\n",
            "frame= 5417 fps=1757 q=-1.0 Lsize=    8832kB time=00:04:19.07 bitrate= 279.3kbits/s speed=84.1x    \n",
            "video:6305kB audio:2416kB subtitle:3kB other streams:0kB global headers:0kB muxing overhead: 1.238411%\n",
            "\u001b[1;36m[aac @ 0x582c90abc300] \u001b[0mQavg: 6234.927\n",
            "Generated video for Japanese: Video_Japanese.mp4\n",
            "ffmpeg version 4.4.2-0ubuntu0.22.04.1 Copyright (c) 2000-2021 the FFmpeg developers\n",
            "  built with gcc 11 (Ubuntu 11.2.0-19ubuntu1)\n",
            "  configuration: --prefix=/usr --extra-version=0ubuntu0.22.04.1 --toolchain=hardened --libdir=/usr/lib/x86_64-linux-gnu --incdir=/usr/include/x86_64-linux-gnu --arch=amd64 --enable-gpl --disable-stripping --enable-gnutls --enable-ladspa --enable-libaom --enable-libass --enable-libbluray --enable-libbs2b --enable-libcaca --enable-libcdio --enable-libcodec2 --enable-libdav1d --enable-libflite --enable-libfontconfig --enable-libfreetype --enable-libfribidi --enable-libgme --enable-libgsm --enable-libjack --enable-libmp3lame --enable-libmysofa --enable-libopenjpeg --enable-libopenmpt --enable-libopus --enable-libpulse --enable-librabbitmq --enable-librubberband --enable-libshine --enable-libsnappy --enable-libsoxr --enable-libspeex --enable-libsrt --enable-libssh --enable-libtheora --enable-libtwolame --enable-libvidstab --enable-libvorbis --enable-libvpx --enable-libwebp --enable-libx265 --enable-libxml2 --enable-libxvid --enable-libzimg --enable-libzmq --enable-libzvbi --enable-lv2 --enable-omx --enable-openal --enable-opencl --enable-opengl --enable-sdl2 --enable-pocketsphinx --enable-librsvg --enable-libmfx --enable-libdc1394 --enable-libdrm --enable-libiec61883 --enable-chromaprint --enable-frei0r --enable-libx264 --enable-shared\n",
            "  libavutil      56. 70.100 / 56. 70.100\n",
            "  libavcodec     58.134.100 / 58.134.100\n",
            "  libavformat    58. 76.100 / 58. 76.100\n",
            "  libavdevice    58. 13.100 / 58. 13.100\n",
            "  libavfilter     7.110.100 /  7.110.100\n",
            "  libswscale      5.  9.100 /  5.  9.100\n",
            "  libswresample   3.  9.100 /  3.  9.100\n",
            "  libpostproc    55.  9.100 / 55.  9.100\n",
            "Input #0, mov,mp4,m4a,3gp,3g2,mj2, from 'input_video.mp4':\n",
            "  Metadata:\n",
            "    major_brand     : mp42\n",
            "    minor_version   : 0\n",
            "    compatible_brands: isommp42\n",
            "    encoder         : Google\n",
            "  Duration: 00:03:00.61, start: 0.000000, bitrate: 384 kb/s\n",
            "  Stream #0:0(und): Video: h264 (Main) (avc1 / 0x31637661), yuv420p(tv, bt709), 640x360 [SAR 1:1 DAR 16:9], 286 kb/s, 30 fps, 30 tbr, 15360 tbn, 60 tbc (default)\n",
            "    Metadata:\n",
            "      handler_name    : ISO Media file produced by Google Inc.\n",
            "      vendor_id       : [0][0][0][0]\n",
            "  Stream #0:1(eng): Audio: aac (LC) (mp4a / 0x6134706D), 44100 Hz, stereo, fltp, 96 kb/s (default)\n",
            "    Metadata:\n",
            "      handler_name    : ISO Media file produced by Google Inc.\n",
            "      vendor_id       : [0][0][0][0]\n",
            "\u001b[0;35m[mp3 @ 0x56ceca97a980] \u001b[0m\u001b[0;33mEstimating duration from bitrate, this may be inaccurate\n",
            "\u001b[0mInput #1, mp3, from 'dubbed_it.mp3':\n",
            "  Duration: 00:02:58.49, start: 0.000000, bitrate: 64 kb/s\n",
            "  Stream #1:0: Audio: mp3, 24000 Hz, mono, fltp, 64 kb/s\n",
            "Input #2, srt, from 'subtitles_italian.srt':\n",
            "  Duration: N/A, bitrate: N/A\n",
            "  Stream #2:0: Subtitle: subrip\n",
            "Stream mapping:\n",
            "  Stream #0:0 -> #0:0 (copy)\n",
            "  Stream #1:0 -> #0:1 (mp3 (mp3float) -> aac (native))\n",
            "  Stream #2:0 -> #0:2 (subrip (srt) -> mov_text (native))\n",
            "Press [q] to stop, [?] for help\n",
            "Output #0, mp4, to 'Video_Italian.mp4':\n",
            "  Metadata:\n",
            "    major_brand     : mp42\n",
            "    minor_version   : 0\n",
            "    compatible_brands: isommp42\n",
            "    encoder         : Lavf58.76.100\n",
            "  Stream #0:0(und): Video: h264 (Main) (avc1 / 0x31637661), yuv420p(tv, bt709), 640x360 [SAR 1:1 DAR 16:9], q=2-31, 286 kb/s, 30 fps, 30 tbr, 15360 tbn, 15360 tbc (default)\n",
            "    Metadata:\n",
            "      handler_name    : ISO Media file produced by Google Inc.\n",
            "      vendor_id       : [0][0][0][0]\n",
            "  Stream #0:1(ita): Audio: aac (LC) (mp4a / 0x6134706D), 24000 Hz, mono, fltp, 69 kb/s\n",
            "    Metadata:\n",
            "      encoder         : Lavc58.134.100 aac\n",
            "  Stream #0:2(ita): Subtitle: mov_text (tx3g / 0x67337874)\n",
            "    Metadata:\n",
            "      encoder         : Lavc58.134.100 mov_text\n",
            "frame= 5417 fps=1910 q=-1.0 Lsize=    8094kB time=00:03:00.53 bitrate= 367.3kbits/s speed=63.6x    \n",
            "video:6305kB audio:1687kB subtitle:2kB other streams:0kB global headers:0kB muxing overhead: 1.250492%\n",
            "\u001b[1;36m[aac @ 0x56ceca9cbc00] \u001b[0mQavg: 4905.364\n",
            "Generated video for Italian: Video_Italian.mp4\n"
          ]
        }
      ],
      "source": [
        "# Define the target languages and their respective dubbed audio and subtitle files\n",
        "languages = {\n",
        "    \"Spanish\": {\n",
        "        \"audio\": \"dubbed_es.mp3\",\n",
        "        \"subtitle\": \"subtitles_spanish.srt\",\n",
        "        \"output\": \"Video_Spanish.mp4\"\n",
        "    },\n",
        "    \"French\": {\n",
        "        \"audio\": \"dubbed_fr.mp3\",\n",
        "        \"subtitle\": \"subtitles_french.srt\",\n",
        "        \"output\": \"Video_French.mp4\"\n",
        "    },\n",
        "    \"German\": {\n",
        "        \"audio\": \"dubbed_de.mp3\",\n",
        "        \"subtitle\": \"subtitles_german.srt\",\n",
        "        \"output\": \"Video_German.mp4\"\n",
        "    },\n",
        "    \"Japanese\": {\n",
        "        \"audio\": \"dubbed_ja.mp3\",\n",
        "        \"subtitle\": \"subtitles_japanese.srt\",\n",
        "        \"output\": \"Video_Japanese.mp4\"\n",
        "    },\n",
        "    \"Italian\": {\n",
        "        \"audio\": \"dubbed_it.mp3\",\n",
        "        \"subtitle\": \"subtitles_italian.srt\",\n",
        "        \"output\": \"Video_Italian.mp4\"\n",
        "    }\n",
        "}\n",
        "\n",
        "# Process each language and generate the final video\n",
        "for lang, files in languages.items():\n",
        "    input_video = \"input_video.mp4\"\n",
        "    input_audio = files[\"audio\"]\n",
        "    input_subtitle = files[\"subtitle\"]\n",
        "    output_video = files[\"output\"]\n",
        "\n",
        "    # Construct ffmpeg command for each language\n",
        "    !ffmpeg -i {input_video} -i {input_audio} -i {input_subtitle} \\\n",
        "    -map 0:v -map 1:a -map 2:s \\\n",
        "    -metadata:s:a:0 language={lang[:3].lower()} \\\n",
        "    -metadata:s:s:0 language={lang[:3].lower()} \\\n",
        "    -c:v copy -c:a aac -c:s mov_text -strict experimental {output_video}\n",
        "\n",
        "    print(f\"Generated video for {lang}: {output_video}\")"
      ]
    },
    {
      "cell_type": "markdown",
      "metadata": {
        "id": "9DFA2hmxq-3L"
      },
      "source": [
        "#Download Final Videos"
      ]
    },
    {
      "cell_type": "code",
      "execution_count": 15,
      "metadata": {
        "colab": {
          "base_uri": "https://localhost:8080/",
          "height": 126
        },
        "id": "jq0OyR7lrg99",
        "outputId": "cfb2abc6-2ef8-475e-b602-0d409b580775"
      },
      "outputs": [
        {
          "data": {
            "application/javascript": "\n    async function download(id, filename, size) {\n      if (!google.colab.kernel.accessAllowed) {\n        return;\n      }\n      const div = document.createElement('div');\n      const label = document.createElement('label');\n      label.textContent = `Downloading \"${filename}\": `;\n      div.appendChild(label);\n      const progress = document.createElement('progress');\n      progress.max = size;\n      div.appendChild(progress);\n      document.body.appendChild(div);\n\n      const buffers = [];\n      let downloaded = 0;\n\n      const channel = await google.colab.kernel.comms.open(id);\n      // Send a message to notify the kernel that we're ready.\n      channel.send({})\n\n      for await (const message of channel.messages) {\n        // Send a message to notify the kernel that we're ready.\n        channel.send({})\n        if (message.buffers) {\n          for (const buffer of message.buffers) {\n            buffers.push(buffer);\n            downloaded += buffer.byteLength;\n            progress.value = downloaded;\n          }\n        }\n      }\n      const blob = new Blob(buffers, {type: 'application/binary'});\n      const a = document.createElement('a');\n      a.href = window.URL.createObjectURL(blob);\n      a.download = filename;\n      div.appendChild(a);\n      a.click();\n      div.remove();\n    }\n  ",
            "text/plain": [
              "<IPython.core.display.Javascript object>"
            ]
          },
          "metadata": {},
          "output_type": "display_data"
        },
        {
          "data": {
            "application/javascript": "download(\"download_fe51d543-336b-4ec3-9578-9777be8d9606\", \"video_with_multiple_subtitles.mp4\", 8799652)",
            "text/plain": [
              "<IPython.core.display.Javascript object>"
            ]
          },
          "metadata": {},
          "output_type": "display_data"
        },
        {
          "name": "stdout",
          "output_type": "stream",
          "text": [
            "Downloaded: video_with_multiple_subtitles.mp4\n"
          ]
        },
        {
          "data": {
            "application/javascript": "\n    async function download(id, filename, size) {\n      if (!google.colab.kernel.accessAllowed) {\n        return;\n      }\n      const div = document.createElement('div');\n      const label = document.createElement('label');\n      label.textContent = `Downloading \"${filename}\": `;\n      div.appendChild(label);\n      const progress = document.createElement('progress');\n      progress.max = size;\n      div.appendChild(progress);\n      document.body.appendChild(div);\n\n      const buffers = [];\n      let downloaded = 0;\n\n      const channel = await google.colab.kernel.comms.open(id);\n      // Send a message to notify the kernel that we're ready.\n      channel.send({})\n\n      for await (const message of channel.messages) {\n        // Send a message to notify the kernel that we're ready.\n        channel.send({})\n        if (message.buffers) {\n          for (const buffer of message.buffers) {\n            buffers.push(buffer);\n            downloaded += buffer.byteLength;\n            progress.value = downloaded;\n          }\n        }\n      }\n      const blob = new Blob(buffers, {type: 'application/binary'});\n      const a = document.createElement('a');\n      a.href = window.URL.createObjectURL(blob);\n      a.download = filename;\n      div.appendChild(a);\n      a.click();\n      div.remove();\n    }\n  ",
            "text/plain": [
              "<IPython.core.display.Javascript object>"
            ]
          },
          "metadata": {},
          "output_type": "display_data"
        },
        {
          "data": {
            "application/javascript": "download(\"download_cc1560de-1258-42e1-9cd6-26e7f24ac998\", \"Video_Spanish.mp4\", 8653910)",
            "text/plain": [
              "<IPython.core.display.Javascript object>"
            ]
          },
          "metadata": {},
          "output_type": "display_data"
        },
        {
          "name": "stdout",
          "output_type": "stream",
          "text": [
            "Downloaded: Video_Spanish.mp4\n"
          ]
        },
        {
          "data": {
            "application/javascript": "\n    async function download(id, filename, size) {\n      if (!google.colab.kernel.accessAllowed) {\n        return;\n      }\n      const div = document.createElement('div');\n      const label = document.createElement('label');\n      label.textContent = `Downloading \"${filename}\": `;\n      div.appendChild(label);\n      const progress = document.createElement('progress');\n      progress.max = size;\n      div.appendChild(progress);\n      document.body.appendChild(div);\n\n      const buffers = [];\n      let downloaded = 0;\n\n      const channel = await google.colab.kernel.comms.open(id);\n      // Send a message to notify the kernel that we're ready.\n      channel.send({})\n\n      for await (const message of channel.messages) {\n        // Send a message to notify the kernel that we're ready.\n        channel.send({})\n        if (message.buffers) {\n          for (const buffer of message.buffers) {\n            buffers.push(buffer);\n            downloaded += buffer.byteLength;\n            progress.value = downloaded;\n          }\n        }\n      }\n      const blob = new Blob(buffers, {type: 'application/binary'});\n      const a = document.createElement('a');\n      a.href = window.URL.createObjectURL(blob);\n      a.download = filename;\n      div.appendChild(a);\n      a.click();\n      div.remove();\n    }\n  ",
            "text/plain": [
              "<IPython.core.display.Javascript object>"
            ]
          },
          "metadata": {},
          "output_type": "display_data"
        },
        {
          "data": {
            "application/javascript": "download(\"download_75190f2b-c095-4222-befd-7ce0e2cb235b\", \"Video_French.mp4\", 8391744)",
            "text/plain": [
              "<IPython.core.display.Javascript object>"
            ]
          },
          "metadata": {},
          "output_type": "display_data"
        },
        {
          "name": "stdout",
          "output_type": "stream",
          "text": [
            "Downloaded: Video_French.mp4\n"
          ]
        },
        {
          "data": {
            "application/javascript": "\n    async function download(id, filename, size) {\n      if (!google.colab.kernel.accessAllowed) {\n        return;\n      }\n      const div = document.createElement('div');\n      const label = document.createElement('label');\n      label.textContent = `Downloading \"${filename}\": `;\n      div.appendChild(label);\n      const progress = document.createElement('progress');\n      progress.max = size;\n      div.appendChild(progress);\n      document.body.appendChild(div);\n\n      const buffers = [];\n      let downloaded = 0;\n\n      const channel = await google.colab.kernel.comms.open(id);\n      // Send a message to notify the kernel that we're ready.\n      channel.send({})\n\n      for await (const message of channel.messages) {\n        // Send a message to notify the kernel that we're ready.\n        channel.send({})\n        if (message.buffers) {\n          for (const buffer of message.buffers) {\n            buffers.push(buffer);\n            downloaded += buffer.byteLength;\n            progress.value = downloaded;\n          }\n        }\n      }\n      const blob = new Blob(buffers, {type: 'application/binary'});\n      const a = document.createElement('a');\n      a.href = window.URL.createObjectURL(blob);\n      a.download = filename;\n      div.appendChild(a);\n      a.click();\n      div.remove();\n    }\n  ",
            "text/plain": [
              "<IPython.core.display.Javascript object>"
            ]
          },
          "metadata": {},
          "output_type": "display_data"
        },
        {
          "data": {
            "application/javascript": "download(\"download_b776f4e0-b54c-4f02-b9f3-e67398b62d9b\", \"Video_German.mp4\", 8634563)",
            "text/plain": [
              "<IPython.core.display.Javascript object>"
            ]
          },
          "metadata": {},
          "output_type": "display_data"
        },
        {
          "name": "stdout",
          "output_type": "stream",
          "text": [
            "Downloaded: Video_German.mp4\n"
          ]
        },
        {
          "data": {
            "application/javascript": "\n    async function download(id, filename, size) {\n      if (!google.colab.kernel.accessAllowed) {\n        return;\n      }\n      const div = document.createElement('div');\n      const label = document.createElement('label');\n      label.textContent = `Downloading \"${filename}\": `;\n      div.appendChild(label);\n      const progress = document.createElement('progress');\n      progress.max = size;\n      div.appendChild(progress);\n      document.body.appendChild(div);\n\n      const buffers = [];\n      let downloaded = 0;\n\n      const channel = await google.colab.kernel.comms.open(id);\n      // Send a message to notify the kernel that we're ready.\n      channel.send({})\n\n      for await (const message of channel.messages) {\n        // Send a message to notify the kernel that we're ready.\n        channel.send({})\n        if (message.buffers) {\n          for (const buffer of message.buffers) {\n            buffers.push(buffer);\n            downloaded += buffer.byteLength;\n            progress.value = downloaded;\n          }\n        }\n      }\n      const blob = new Blob(buffers, {type: 'application/binary'});\n      const a = document.createElement('a');\n      a.href = window.URL.createObjectURL(blob);\n      a.download = filename;\n      div.appendChild(a);\n      a.click();\n      div.remove();\n    }\n  ",
            "text/plain": [
              "<IPython.core.display.Javascript object>"
            ]
          },
          "metadata": {},
          "output_type": "display_data"
        },
        {
          "data": {
            "application/javascript": "download(\"download_048c8cb3-4203-4f94-95b0-322b00857508\", \"Video_Japanese.mp4\", 9044424)",
            "text/plain": [
              "<IPython.core.display.Javascript object>"
            ]
          },
          "metadata": {},
          "output_type": "display_data"
        },
        {
          "name": "stdout",
          "output_type": "stream",
          "text": [
            "Downloaded: Video_Japanese.mp4\n"
          ]
        },
        {
          "data": {
            "application/javascript": "\n    async function download(id, filename, size) {\n      if (!google.colab.kernel.accessAllowed) {\n        return;\n      }\n      const div = document.createElement('div');\n      const label = document.createElement('label');\n      label.textContent = `Downloading \"${filename}\": `;\n      div.appendChild(label);\n      const progress = document.createElement('progress');\n      progress.max = size;\n      div.appendChild(progress);\n      document.body.appendChild(div);\n\n      const buffers = [];\n      let downloaded = 0;\n\n      const channel = await google.colab.kernel.comms.open(id);\n      // Send a message to notify the kernel that we're ready.\n      channel.send({})\n\n      for await (const message of channel.messages) {\n        // Send a message to notify the kernel that we're ready.\n        channel.send({})\n        if (message.buffers) {\n          for (const buffer of message.buffers) {\n            buffers.push(buffer);\n            downloaded += buffer.byteLength;\n            progress.value = downloaded;\n          }\n        }\n      }\n      const blob = new Blob(buffers, {type: 'application/binary'});\n      const a = document.createElement('a');\n      a.href = window.URL.createObjectURL(blob);\n      a.download = filename;\n      div.appendChild(a);\n      a.click();\n      div.remove();\n    }\n  ",
            "text/plain": [
              "<IPython.core.display.Javascript object>"
            ]
          },
          "metadata": {},
          "output_type": "display_data"
        },
        {
          "data": {
            "application/javascript": "download(\"download_6a6c9313-4590-4c32-9f00-646fc67a998d\", \"Video_Italian.mp4\", 8288667)",
            "text/plain": [
              "<IPython.core.display.Javascript object>"
            ]
          },
          "metadata": {},
          "output_type": "display_data"
        },
        {
          "name": "stdout",
          "output_type": "stream",
          "text": [
            "Downloaded: Video_Italian.mp4\n"
          ]
        }
      ],
      "source": [
        "from google.colab import files\n",
        "\n",
        "# List of files to download\n",
        "files_to_download = [\n",
        "    \"video_with_multiple_subtitles.mp4\",\n",
        "    \"Video_Spanish.mp4\",\n",
        "    \"Video_French.mp4\",\n",
        "    \"Video_German.mp4\",\n",
        "    \"Video_Japanese.mp4\",\n",
        "    \"Video_Italian.mp4\"\n",
        "]\n",
        "\n",
        "for file in files_to_download:\n",
        "    try:\n",
        "        files.download(file)\n",
        "        print(f\"Downloaded: {file}\")\n",
        "    except FileNotFoundError:\n",
        "        print(f\"Error: {file} not found.\")"
      ]
    },
    {
      "cell_type": "markdown",
      "metadata": {
        "id": "0FZcYY9buL8D"
      },
      "source": [
        "The dubbed audio tracks are not perfectly synchronized with the video, causing the audio to continue playing even after the video ends. However, the video with multiple subtitles is properly timed and works as expected.\n",
        "\n",
        "To address the synchronization issue, we can calculate the exact duration of the original video and compare it with the duration of the dubbed audio and adjust the audio playback speed proportionally using tools like `ffmpeg` to match the video duration. Additionally, we can ensure subtitle timings are aligned with both the video and the adjusted audio to achieve seamless synchronization."
      ]
    }
  ],
  "metadata": {
    "colab": {
      "provenance": []
    },
    "kernelspec": {
      "display_name": "Python 3",
      "name": "python3"
    },
    "language_info": {
      "name": "python"
    }
  },
  "nbformat": 4,
  "nbformat_minor": 0
}
